<?xml version="1.0" encoding="UTF-8"?>
<svg width="105px" height="64px" viewBox="0 0 105 64" version="1.1" xmlns="http://www.w3.org/2000/svg" xmlns:xlink="http://www.w3.org/1999/xlink">
    <!-- Generator: Sketch 42 (36781) - http://www.bohemiancoding.com/sketch -->
    <title>Group</title>
    <desc>Created with Sketch.</desc>
    <defs></defs>
    <g id="Page-1" stroke="none" stroke-width="1" fill="none" fill-rule="evenodd">
        <g id="Group" fill-rule="nonzero" fill="#777777">
            <path d="M29.7035951,32.8429354 C37.2060907,32.8429354 45.5291718,29.4778248 54.1826185,20.325982 C77.8410564,-4.72364941 96.7784637,21.5367929 98.8991976,24.6660312 C100.210003,26.5844587 102.160226,26.5844587 103.471031,24.6660312 C104.781836,22.7318788 104.781836,19.8542376 103.471031,17.9200852 C101.019931,14.3033776 78.3419333,-16.9890057 50.2715164,12.6208223 C26.6024215,37.654729 7.67567114,11.4100115 5.55493728,8.2807732 C4.25478889,6.36234568 2.29390935,6.36234568 0.983104009,8.2807732 C-0.327701336,10.2149255 -0.327701336,13.0925668 0.983104009,15.0267191 C6.53537705,23.4552204 16.979192,32.8429354 29.7035951,32.8429354 Z" id="Shape"></path>
            <path d="M29.7035951,63.9780705 C37.2060907,63.9780705 45.5291718,60.6129599 54.1826185,51.4611172 C77.8410564,26.4114857 96.7784637,52.671928 98.8991976,55.8011663 C100.210003,57.7195938 102.160226,57.7195938 103.471031,55.8011663 C104.781836,53.867014 104.781836,50.9893727 103.471031,49.0552204 C101.019931,45.4385128 78.3419333,14.1461295 50.2715164,43.7559575 C26.6024215,68.7898641 7.67567114,42.5451467 5.55493728,39.4159083 C4.25478889,37.4974808 2.29390935,37.4974808 0.983104009,39.4159083 C-0.327701336,41.3500607 -0.327701336,44.2277019 0.983104009,46.1618543 C6.53537705,54.5903555 16.979192,63.9780705 29.7035951,63.9780705 Z" id="Shape-Copy"></path>
        </g>
    </g>
</svg>